<?xml version="1.0" standalone="no"?><!DOCTYPE svg PUBLIC "-//W3C//DTD SVG 1.1//EN" "http://www.w3.org/Graphics/SVG/1.1/DTD/svg11.dtd"><svg t="1680576024215" class="icon" viewBox="0 0 1024 1024" version="1.1" xmlns="http://www.w3.org/2000/svg" p-id="5551" xmlns:xlink="http://www.w3.org/1999/xlink" width="200" height="200"><path d="M333.26 719.725c23.969 3.923 78.458 8.115 103.706 8.115 221.364 0 370.004-164.73 370.004-358.445S621.254 18.63 436.966 18.63c-221.683 0-400.85 157.05-400.85 350.765 0 112.205 42.783 207.488 123.34 276.096v174.855l173.805-100.621z m272.11-392.007c25.273 0 45.772 20.5 45.772 45.786a45.786 45.786 0 1 1-45.772-45.786z m-185.293 0c25.28 0 45.773 20.5 45.773 45.786a45.78 45.78 0 1 1-91.565 0 45.786 45.786 0 0 1 45.792-45.786z m-183.706 0a45.786 45.786 0 1 1 0 91.572 45.786 45.786 0 0 1 0-91.572z" fill="#BFCBD9" p-id="5552"></path><path d="M867.066 300.41l1.574 26.566c0.237 25.184 0 22.88 0 46.272 0 245.862-193.76 416.256-462.515 416.256h-92.506c73.395 71.757 158.778 115.622 277.491 115.622 25.248 0 49.876-2.272 73.85-6.195l172.838 106.42V830.457c93.716-64.173 154.164-163.86 154.164-276.064 0.006-100.039-48.096-190.074-124.896-253.984z" fill="#BFCBD9" p-id="5553"></path></svg>